<?xml version="1.0" encoding="UTF-8" standalone="no"?>
<!DOCTYPE svg PUBLIC "-//W3C//DTD SVG 1.1//EN" "http://www.w3.org/Graphics/SVG/1.1/DTD/svg11.dtd">
<svg width="100%" height="100%" viewBox="0 0 720 250" version="1.1" xmlns="http://www.w3.org/2000/svg" xmlns:xlink="http://www.w3.org/1999/xlink" xml:space="preserve" xmlns:serif="http://www.serif.com/" style="fill-rule:evenodd;clip-rule:evenodd;stroke-linejoin:round;stroke-miterlimit:1.41421;">
    <g id="Outline" transform="matrix(1,0,0,1,-40,-25)">
        <g transform="matrix(1,0,0,1,-4,0)">
            <path d="M448.74,182.995L398.175,182.995C388.475,182.995 380.964,180.691 375.642,176.082C370.319,171.473 367.658,164.662 367.658,155.649L367.658,102.491C367.658,94.093 370.319,87.487 375.642,82.673C380.964,77.859 388.475,75.452 398.175,75.452L448.74,75.452L448.74,105.103L396.755,105.103C392.615,105.103 390.545,107.459 390.545,112.17L390.545,146.891C390.545,149.657 391.166,151.449 392.408,152.269C393.65,153.088 395.572,153.498 398.175,153.498L425.675,153.498L425.675,143.819L400.658,143.819L400.658,114.321L432.595,114.321C438.509,114.321 442.678,115.473 445.103,117.778C447.528,120.082 448.74,123.846 448.74,129.07L448.74,182.995ZM502.105,166.391C502.105,168.904 501.829,171.192 501.276,173.254C500.724,175.316 499.814,177.088 498.546,178.57C497.279,180.052 495.638,181.196 493.623,182.001C491.608,182.806 489.17,183.209 486.31,183.209L473.538,183.209C468.013,183.209 463.983,181.663 461.449,178.57C458.914,175.477 457.646,171.417 457.646,166.391L457.646,115.55L470.321,115.55L470.321,160.592C470.321,162.074 470.662,163.121 471.345,163.733C472.027,164.345 473.083,164.651 474.513,164.651L485.335,164.651C486.7,164.651 487.724,164.345 488.407,163.733C489.089,163.121 489.43,162.074 489.43,160.592L489.43,115.55L502.105,115.55L502.105,166.391ZM545.687,115.55C548.871,115.55 551.325,116.436 553.048,118.208C554.77,119.98 555.631,122.091 555.631,124.539C555.631,125.635 555.453,126.73 555.095,127.826C554.738,128.921 554.201,130.016 553.486,131.112L530.282,164.651L555.144,164.651L555.144,183.209L519.265,183.209C517.575,183.209 516.08,182.935 514.78,182.388C513.48,181.84 512.407,181.115 511.562,180.213C510.717,179.311 510.084,178.28 509.661,177.12C509.239,175.96 509.027,174.736 509.027,173.447C509.027,170.934 509.807,168.55 511.367,166.294L534.474,134.205L510.197,134.205L510.197,115.55L545.687,115.55ZM597.458,115.55C600.643,115.55 603.096,116.436 604.819,118.208C606.541,119.98 607.402,122.091 607.402,124.539C607.402,125.635 607.224,126.73 606.866,127.826C606.509,128.921 605.973,130.016 605.258,131.112L582.053,164.651L606.915,164.651L606.915,183.209L571.036,183.209C569.346,183.209 567.851,182.935 566.551,182.388C565.251,181.84 564.179,181.115 563.334,180.213C562.489,179.311 561.855,178.28 561.432,177.12C561.01,175.96 560.799,174.736 560.799,173.447C560.799,170.934 561.579,168.55 563.139,166.294L586.246,134.205L561.969,134.205L561.969,115.55L597.458,115.55ZM648.741,183.209L614.617,183.209L614.617,115.55L627.292,115.55L627.292,164.651L648.741,164.651L648.741,183.209ZM655.469,134.108L655.469,115.55L699.928,115.55L699.928,134.205L655.469,134.108ZM655.469,183.209L655.469,139.714L694.078,139.714L694.078,158.272L668.144,158.272L668.144,164.651L699.928,164.651L699.928,183.209L655.469,183.209ZM753.941,183.209L738.537,183.209L725.862,159.529L720.5,159.529L720.5,183.209L707.825,183.209L707.825,139.908L736.099,139.908C737.399,139.908 738.277,139.73 738.732,139.376C739.187,139.022 739.414,138.264 739.414,137.105C739.414,135.945 739.187,135.155 738.732,134.736C738.277,134.318 737.399,134.108 736.099,134.108L707.825,134.108L707.825,115.55L735.514,115.55C738.504,115.55 741.072,115.84 743.217,116.42C745.362,117 747.1,117.967 748.433,119.32C749.765,120.673 750.74,122.429 751.358,124.588C751.975,126.746 752.284,129.404 752.284,132.562L752.284,143.194C752.284,147.898 751.244,151.571 749.164,154.213C747.084,156.854 743.997,158.24 739.902,158.369L753.941,183.209Z" style="fill:rgb(51,51,51);"/>
        </g>
        <g transform="matrix(1,0,0,1,-4,0)">
            <path d="M336.852,37.751C318.753,37.662 289.312,38.507 260.997,43.626L261.06,43.743L260.388,43.779C260.388,43.779 244.286,43.816 221.546,80.777C221.546,80.777 222.508,82.885 201.085,82.885C201.085,82.885 171.282,92.458 155.224,135.505C155.224,135.505 149.148,163.829 153.485,178.613C153.485,178.613 155.195,185.984 155.491,187.748C156.51,193.831 158.004,200.671 159.108,206.348C160.086,211.377 161.038,215.847 161.939,219.615C163.337,225.462 164.576,229.429 165.62,231.186L182.54,231.174L189.559,218.273C204.982,191.154 235.674,193.352 235.674,193.352C246.996,193.186 345.958,191.698 353.328,191.786L353.493,162.05L216.977,163.369C204.972,165.285 195.196,167.923 187.44,171.091C181.502,173.516 177.082,176.114 173.947,178.707C172.852,179.613 170.953,181.322 170.811,181.521C170.727,181.639 170.237,181.659 170.291,181.568C170.319,181.52 172.162,178.591 173.274,177.671C176.442,175.051 180.893,172.426 186.868,169.984C194.656,166.803 204.87,164.162 216.939,162.239L353.506,160.92L353.582,146.876L294.342,146.688C294.342,146.688 292.284,146.499 291.791,143.521L292.21,115.987C292.21,115.987 291.433,112.321 294.913,112.726L353.061,112.232L353.493,85.145L304.306,83.803C304.306,83.803 297.369,84.753 266.493,75.304L265.313,52.266C265.313,52.266 301.881,46.078 353.836,47.275L354.254,38.211L354.483,38.187C354.483,38.187 354.259,38.175 354.254,38.175L354.254,37.999L352.401,38.116C350.566,38.025 345.882,37.796 336.852,37.751ZM354.064,50.171C352.591,50.179 334.406,50.342 316.505,50.912C298.604,51.482 276.783,53.761 276.457,55.374C276.131,56.986 274.944,66.784 278.247,72.667C280.591,76.84 293.709,79.136 307.048,80.212C307.048,80.212 315.968,80.65 326.24,81.048C336.513,81.447 348.138,81.806 353.556,81.672L353.81,65.921L354.064,50.171ZM126.715,51.054C125.086,51.035 122.92,51.531 121.549,53.926C121.549,53.926 120.177,56.888 114.288,57.045L87.239,56.904C87.239,56.904 84.706,56.848 83.291,58.976L79.229,58.87L77.846,58.305L71.233,58.976L70.205,59.8L55.557,62.154L55.074,70.972L71.03,68.135L72.185,68.911L78.785,68.358L80.016,67.746L85.043,67.193C85.043,67.193 86.199,68.058 87.315,68.429C87.315,68.429 86.435,69.515 86.49,70.336C86.49,70.336 89.162,82.384 91.453,87.358C91.453,87.358 92.37,91.629 101.455,92.408L123.504,94.539C123.504,94.539 125.789,95.141 129.863,92.49L132.376,92.22C132.376,92.22 133.001,93.668 134.636,93.456L142.112,94.456C142.112,94.456 143.601,94.489 144.409,93.785L155.833,86.169C155.833,86.169 157.629,85.068 158.626,85.31L160.53,85.639C160.53,85.639 162.186,85.79 163.03,84.898L163.919,84.403L169.072,86.51L170.545,86.31L182.16,92.521L187.306,88.381L175.521,80.931L175.457,79.412L170.164,75.563C170.689,73.739 169.326,72.784 169.326,72.784L155.783,68.052L154.488,64.144C154.488,64.144 151.829,59.913 145.374,57.505L128.924,51.395C128.924,51.395 128.613,51.29 128.111,51.195C127.735,51.123 127.258,51.06 126.715,51.054ZM93.091,68.841L120.711,68.853C120.711,68.853 122.176,68.895 122.399,70.006L125.065,76.775L121.003,72.149C121.003,72.149 119.938,71.325 116.878,72.137L95.578,80.707C95.578,80.707 95.661,82.679 97.165,82.214L116.586,75.574C116.586,75.574 118.077,75.169 119.302,76.469L123.592,82.025L122.095,86.181C122.095,86.181 121.904,87.595 119.277,87.805C119.277,87.805 102.268,88.002 99.666,86.428C99.666,86.428 95.68,86.137 93.877,81.166L93.091,68.841ZM247.301,109.983C253.676,110.007 260.25,110.109 267.014,110.301C267.168,110.306 267.257,110.46 267.179,110.584C267.159,110.614 266.87,111.061 266.747,111.243C266.395,111.762 265.988,112.339 265.528,112.962C264.217,114.74 262.754,116.516 261.187,118.177C256.971,122.644 252.771,125.445 248.811,125.769C247.92,125.842 247.043,125.784 246.197,125.593L239.533,125.887C239.486,125.945 239.443,125.998 239.355,126.099C239.155,126.33 238.92,126.588 238.644,126.864C237.858,127.652 236.922,128.437 235.852,129.171C232.828,131.247 229.305,132.509 225.304,132.538C220.19,132.576 214.682,130.586 208.815,126.181C208.314,126.183 163.98,126.333 163.627,126.334C163.47,126.335 163.37,126.178 163.449,126.052C163.465,126.027 163.716,125.661 163.817,125.51C164.106,125.08 164.434,124.591 164.807,124.074C165.874,122.598 167.05,121.133 168.298,119.754C170.935,116.842 173.539,114.755 175.99,113.868C176.622,113.64 177.238,113.491 177.831,113.433C177.88,113.426 178.651,113.333 178.986,113.291C179.941,113.173 181.078,113.033 182.388,112.891C186.129,112.486 190.518,112.091 195.538,111.714C210.834,110.563 228.175,109.911 247.301,109.983ZM211.773,122.332L170.075,122.885L169.491,124.58L211.506,124.463C227.189,139.128 239.012,124.121 239.012,124.121L248.012,124.063L249.345,122.332L238.162,122.52C225.289,137.61 211.773,122.332 211.773,122.332ZM153.777,184.687C152.358,196.138 146.211,261.032 165.493,266.702L214.781,266.337C214.781,266.337 226.256,268.633 229.124,246.395L198.851,240.05C198.851,240.05 182.513,236.794 182.489,236.731L181.359,232.881C181.359,232.881 164.487,232.939 164.452,232.881C163.371,231.119 162.097,226.327 160.669,220.356C159.767,216.583 158.818,212.111 157.839,207.078C156.734,201.397 155.647,196.059 154.627,189.973C154.395,188.585 154.086,186.625 153.777,184.687ZM353.366,193.858L229.86,195.058C194.823,197.542 183.187,234.365 183.187,234.365L183.708,235.754L188.455,236.601L190.664,237.002L199.866,238.65C199.866,238.65 229.299,245.13 229.302,245.101C229.302,245.101 259.707,247.298 264.97,247.655C270.233,248.012 279.484,247.296 288.084,234.2C288.084,234.2 301.602,228.9 352.96,232.199L353.366,193.858ZM233.605,213.34C238.193,213.34 241.906,216.941 241.906,221.38C241.906,225.82 238.193,229.409 233.605,229.409C229.017,229.409 225.291,225.82 225.291,221.38C225.291,216.941 229.017,213.34 233.605,213.34ZM257.57,214.094C262.158,214.094 265.871,217.694 265.871,222.134C265.871,226.573 262.158,230.162 257.57,230.162C252.982,230.162 249.256,226.573 249.256,222.134C249.256,217.694 252.982,214.094 257.57,214.094Z" style="fill:url(#_Linear1);"/>
        </g>
        <g transform="matrix(1.00406,0,0,1,-9.2809,0)">
            <path d="M371.732,197.244L756.25,197.244C756.417,197.244 756.552,198.46 756.552,199.96C756.552,201.46 756.417,202.677 756.25,202.677L371.732,202.677C371.566,202.677 371.431,201.46 371.431,199.96C371.431,198.46 371.566,197.244 371.732,197.244Z" style="fill:rgb(255,88,0);"/>
        </g>
    </g>
    <defs>
        <linearGradient id="_Linear1" x1="0" y1="0" x2="1" y2="0" gradientUnits="userSpaceOnUse" gradientTransform="matrix(143.453,-103.631,103.631,143.453,163.515,208.118)"><stop offset="0" style="stop-color:rgb(255,186,93);stop-opacity:1"/><stop offset="1" style="stop-color:rgb(255,88,0);stop-opacity:1"/></linearGradient>
    </defs>
</svg>
